<svg width="491" height="257" viewBox="0 0 491 257" fill="none" xmlns="http://www.w3.org/2000/svg">
<g clip-path="url(#clip0_580_102)">
<path fill-rule="evenodd" clip-rule="evenodd" d="M444.918 33.309C453.996 30.6407 462.733 33.1667 464.428 38.9523C466.127 44.7351 460.14 51.5907 451.062 54.2591C441.983 56.9275 433.244 54.4014 431.549 48.6186C429.853 42.833 435.837 35.9774 444.918 33.309V33.309Z" fill="url(#paint0_radial_580_102)"/>
<path d="M71.79 21.7764C64.7359 21.7764 54.8509 24.4147 42.1322 29.6857C27.6274 35.6547 20.3764 41.5223 20.3764 47.2915C20.3764 59.4291 30.1629 66.5392 49.7333 68.6301C67.9142 70.3215 86.1444 72.0101 104.426 73.7014C123.997 78.2773 133.783 89.5693 133.783 107.572C133.783 123.289 127.922 135.722 116.199 144.874C105.37 153.331 91.8582 157.559 75.6631 157.559C56.4893 157.559 42.1322 153.38 32.5945 145.025C22.5618 136.073 17.5454 122.194 17.5454 103.395C17.5454 99.7145 21.1696 97.8234 28.3987 97.7249C33.0677 108.467 36.0491 114.934 37.3401 117.123C40.6196 122.892 44.5173 127.019 49.0878 129.507C54.2546 132.392 61.3333 133.834 70.3732 133.834C81.0788 133.834 90.4167 132.591 98.3406 130.104C110.039 126.324 115.901 120.306 115.901 112.049C115.901 103.595 110.758 97.6756 100.452 94.2929C97.397 93.2995 88.978 91.9557 75.2172 90.2644L76.5575 82.9545C75.5646 85.839 74.372 87.9764 72.9825 89.3695L72.0881 89.0712C53.6091 89.7663 38.1087 87.232 25.5924 81.4602C9.1976 73.9012 1.00293 61.717 1.00293 44.905C1.00293 38.3394 4.77751 31.4263 12.3294 24.1656C19.0854 17.6986 27.28 12.1785 36.9189 7.60265C46.555 3.02675 54.5035 0.738797 60.7617 0.738797C61.6561 0.738797 63.5926 1.28615 66.574 2.38087C71.8392 1.08637 75.5646 0.539012 77.75 0.738797C81.128 5.93595 83.3626 10.0904 84.4567 13.1994C85.9474 17.102 86.6914 21.7518 86.6914 27.1487C82.2221 27.1487 79.4404 26.949 78.3463 26.5521C76.9568 26.054 74.7714 24.464 71.79 21.7764V21.7764ZM156.734 156.661C144.812 156.661 135.92 148.383 130.058 131.844C125.887 120.106 123.8 106.803 123.8 91.9557C123.8 75.0205 127.227 66.5392 134.082 66.5392C139.943 66.5392 142.875 71.6132 142.875 81.7858C142.875 83.8986 142.749 86.6847 142.5 90.1659C142.254 93.6471 142.128 95.8611 142.128 96.756C142.128 121.475 148.835 133.834 162.249 133.834C170.99 133.834 179.535 128.462 187.88 117.72C195.829 107.572 199.803 97.9246 199.803 88.7729C199.803 83.9972 198.312 79.4979 195.331 75.2696C192.35 71.0412 190.862 67.6832 190.862 65.1982C190.862 61.9141 191.928 58.8051 194.065 55.8713C196.201 52.9374 198.859 51.4705 202.038 51.4705C206.31 51.4705 210.53 56.1942 214.704 65.6443C218.38 73.9012 220.219 80.5652 220.219 85.6392C220.219 103.048 214.059 119.061 201.74 133.683C188.824 149.004 173.821 156.661 156.734 156.661V156.661ZM230.5 99.2164H236.014C242.174 99.2164 251.414 98.2969 263.733 96.4577C276.052 94.6159 285.292 93.6963 291.451 93.6963C306.254 93.6963 313.656 100.163 313.656 113.095C313.656 120.257 309.832 128.462 302.182 137.712C295.029 146.368 287.975 152.187 281.019 155.17C278.437 156.265 272.278 156.812 262.54 156.812C251.813 156.812 240.981 153.678 230.054 147.411C217.535 140.249 211.277 131.795 211.277 122.047H223.944C224.937 122.047 230.651 124.335 241.083 128.91C251.515 133.486 257.773 135.774 259.86 135.774H270.59C275.855 135.774 281.019 132.939 286.088 127.268C290.459 122.394 293.489 117.172 295.177 111.6L294.583 111.004C287.827 111.004 277.816 112.172 264.553 114.512C251.29 116.849 241.28 118.018 234.524 118.018C228.662 118.018 223.397 116.576 218.728 113.691C213.263 110.309 210.53 105.883 210.53 100.41C210.53 89.6678 217.286 81.0633 230.798 74.5963C241.728 69.5251 253.301 66.9881 265.522 66.9881C272.775 66.9881 278.041 68.1813 281.318 70.5678C285.095 73.3538 286.982 78.1788 286.982 85.0426C274.663 85.0426 264.778 85.787 257.324 87.2813C246.695 89.3695 237.754 93.3487 230.5 99.2164V99.2164ZM332.882 105.336C337.551 97.2788 346.095 90.3629 358.513 84.5938C370.236 79.123 381.016 76.586 390.851 76.9855L398.154 77.2838C404.514 81.9583 409.73 91.2332 413.803 105.111C416.385 116.176 418.969 127.195 421.551 138.161L421.103 139.056H430.643C430.643 151.39 425.375 157.559 414.845 157.559C410.87 157.559 407.544 152.882 404.861 143.558C402.676 134.332 400.54 125.054 398.453 115.73C395.572 104.712 392.093 97.7741 388.021 94.8896C376.992 94.8896 367.156 98.6198 358.513 106.08C353.346 110.456 347.734 117.372 341.673 126.82C336.807 134.28 333.478 138.01 331.689 138.01C324.14 138.01 317.532 125.826 311.87 101.455C307.198 81.0633 304.865 62.3629 304.865 45.3538C304.865 41.9711 305.013 39.3849 305.311 37.5923L295.029 37.7428C305.261 32.5703 310.825 29.984 311.719 29.984C315.694 29.984 319.222 35.5041 322.302 46.547C324.288 53.7092 326.375 64.7248 328.56 79.5964C330.745 94.4681 332.187 103.048 332.882 105.336V105.336ZM439.286 72.2099C428.655 72.2099 420.807 70.2202 415.739 66.2409C409.976 61.7663 407.096 54.4043 407.096 44.1578C407.096 35.2058 412.312 26.8997 422.744 19.2422C432.479 12.1785 442.019 8.6481 451.357 8.6481C461.094 8.6481 469.19 10.7363 475.648 14.9126C483.197 19.8881 486.975 26.949 486.975 36.1008C486.975 45.5509 484.54 52.7623 479.672 57.7377C475.698 61.9141 468.892 65.3953 459.256 68.1813C450.115 70.8688 443.458 72.2099 439.286 72.2099ZM455.38 124.135V123.987C457.864 128.563 459.404 132.641 460 136.22C464.571 137.712 466.855 139.951 466.855 142.937C466.855 145.323 464.322 149.85 459.256 156.514H455.826C447.88 156.514 442.416 145.274 439.434 122.791C437.943 111.253 437.2 97.0297 437.2 80.1191C444.352 80.1191 449.27 82.4071 451.953 86.983C453.841 90.2644 454.784 95.4862 454.784 102.648C454.784 104.041 454.784 106.08 454.784 108.765C454.686 111.453 454.636 113.442 454.636 114.734C454.636 118.615 454.883 121.748 455.38 124.135ZM440.627 30.879C429.399 36.9464 423.786 42.8661 423.786 48.6352C423.786 51.32 425.775 53.0606 429.749 53.857C431.338 54.1553 434.369 54.3058 438.838 54.3058C446.092 54.3058 452.746 53.3096 458.808 51.2954C467.251 48.3862 471.474 44.0839 471.474 38.3887C471.474 36.3991 469.934 34.4861 466.855 32.6935C464.174 31.0788 461.74 30.2824 459.552 30.2824C457.864 30.2824 455.703 30.9775 453.069 32.3705C450.438 33.7635 448.526 34.4614 447.333 34.4614C446.239 34.4614 444.005 33.7143 440.627 32.2227V30.879V30.879Z" fill="black"/>
<rect x="6.59424" y="171.086" width="480" height="80.4143" fill="#E63B30" stroke="#E63B30" stroke-width="11"/>
<path d="M21.8402 230.449H31.5392V202.094H42.9872V230.449H52.6862V193.349H21.8402V230.449ZM123.729 231.032C135.124 231.032 143.18 223.135 143.18 211.899C143.18 200.663 135.124 192.766 123.729 192.766C112.334 192.766 104.278 200.663 104.278 211.899C104.278 223.135 112.334 231.032 123.729 231.032ZM123.729 221.81C118.005 221.81 114.189 217.835 114.189 211.899C114.189 205.91 118.005 201.988 123.729 201.988C129.453 201.988 133.269 205.963 133.269 211.899C133.269 217.835 129.453 221.81 123.729 221.81ZM210.997 193.349H194.726V230.449H204.425V220.22H210.997C219.265 220.22 224.883 214.867 224.883 206.758C224.883 198.702 219.424 193.349 210.997 193.349ZM210.043 211.846H204.425V201.776H210.043C213.17 201.776 215.025 203.578 215.025 206.758C215.025 209.938 213.17 211.846 210.043 211.846ZM300.144 193.349H272.531V202.041H281.488V230.449H291.187V202.041H300.144V193.349ZM365.012 192.978H360.772L343.335 229.919V230.449H353.776L355.843 225.732H369.835L371.955 230.449H382.396V229.919L365.012 192.978ZM362.892 208.295L366.231 217.358H359.394L362.892 208.295ZM436.869 193.349L434.325 218.683C433.954 222.181 433 223.347 430.35 223.347C429.661 223.347 429.184 223.347 428.495 223.294V230.449C430.297 230.608 431.516 230.661 432.894 230.661C439.572 230.661 442.699 226.898 443.494 218.259L444.978 201.988H453.405V230.449H463.051V193.349H436.869Z" fill="white"/>
</g>
<defs>
<radialGradient id="paint0_radial_580_102" cx="0" cy="0" r="1" gradientUnits="userSpaceOnUse" gradientTransform="translate(448.365 45.5093) scale(21.7006 21.7134)">
<stop stop-color="#E31E24"/>
<stop offset="1" stop-color="#E63B30"/>
</radialGradient>
<clipPath id="clip0_580_102">
<rect width="491" height="257" fill="white"/>
</clipPath>
</defs>
</svg>
