<?xml version="1.0" encoding="UTF-8"?>
<!DOCTYPE svg PUBLIC "-//W3C//DTD SVG 1.1//EN" "http://www.w3.org/Graphics/SVG/1.1/DTD/svg11.dtd">
<svg xmlns="http://www.w3.org/2000/svg" xml:space="preserve" width="1795px" height="1110px" version="1.1" style="shape-rendering:geometricPrecision; text-rendering:geometricPrecision; image-rendering:optimizeQuality; fill-rule:evenodd; clip-rule:evenodd"
     viewBox="0 0 1795 1110.07"
     xmlns:xlink="http://www.w3.org/1999/xlink">
 <defs>
  <style type="text/css">
   <![CDATA[
    .fil3 {fill:#000000;fill-rule:nonzero}
    .fil2 {fill:#FEFEFE;fill-rule:nonzero}
    .fil0 {fill:url(#id0)}
    .fil1 {fill:url(#id1)}
   ]]>
  </style>
     <radialGradient id="id0" gradientUnits="userSpaceOnUse" gradientTransform="matrix(1.29722 -0 -0 1.29724 -487 -50)" cx="1639.03" cy="166.73" r="61.16" fx="1639.03" fy="166.73">
   <stop offset="0" style="stop-opacity:1; stop-color:#E31E24"/>
         <stop offset="1" style="stop-opacity:1; stop-color:#E63B30"/>
  </radialGradient>
     <radialGradient id="id1" gradientUnits="userSpaceOnUse" gradientTransform="matrix(1.10946 -0 -0 1.10873 -136 -92)" cx="1244.33" cy="850.55" r="412.24" fx="1244.33" fy="850.55">
   <stop offset="0" style="stop-opacity:1; stop-color:#E31E24"/>
         <stop offset="1" style="stop-opacity:1; stop-color:#E63B30"/>
  </radialGradient>
 </defs>
    <g id="Слой_x0020_1">
  <metadata id="CorelCorpID_0Corel-Layer"/>
        <path class="fil0" d="M1626.58 121.71c33.19,-9.75 65.13,-0.52 71.33,20.62 6.21,21.13 -15.68,46.18 -48.87,55.93 -33.19,9.75 -65.14,0.52 -71.34,-20.61 -6.2,-21.14 15.68,-46.19 48.88,-55.94z"/>
        <path class="fil1" d="M809.95 616.54l841.08 -23.6c58.44,-1.64 99.12,48.32 106.3,106.38l35.66 288.38c7.18,58.05 -78.56,125.01 -136.82,120.26l-854.54 -69.76c-58.27,-4.76 -108.64,-47.92 -106.31,-106.37l8.33 -208.92c2.32,-58.46 47.86,-104.73 106.3,-106.37z"/>
        <path class="fil2" d="M878.46 890.52c11.67,-20.12 33.02,-37.39 64.05,-51.8 29.3,-13.66 56.24,-20 80.81,-19l18.25 0.74c15.89,11.68 28.93,34.85 39.11,69.5 6.45,27.64 12.91,55.16 19.36,82.55l-1.12 2.23 23.84 0c0,30.81 -13.16,46.21 -39.48,46.21 -9.93,0 -18.25,-11.67 -24.95,-34.97 -5.46,-23.04 -10.8,-46.2 -16.01,-69.5 -7.2,-27.51 -15.89,-44.84 -26.07,-52.04 -27.56,0 -52.14,9.31 -73.74,27.95 -12.91,10.93 -26.94,28.19 -42.08,51.8 -12.17,18.63 -20.48,27.94 -24.95,27.94 -18.87,0 -35.38,-30.43 -49.53,-91.3 -11.67,-50.93 -17.51,-97.63 -17.51,-140.11 0,-8.45 0.38,-14.91 1.12,-19.38l-25.69 0.37c25.57,-12.92 39.47,-19.38 41.7,-19.38 9.94,0 18.75,13.79 26.45,41.37 4.96,17.88 10.18,45.4 15.64,82.54 5.46,37.14 9.06,58.57 10.8,64.28zm265.9 -82.73c-26.57,0 -46.18,-4.97 -58.84,-14.9 -14.4,-11.18 -21.6,-29.57 -21.6,-55.16 0,-22.36 13.03,-43.1 39.1,-62.23 24.33,-17.64 48.17,-26.46 71.5,-26.46 24.33,0 44.57,5.22 60.71,15.65 18.87,12.43 28.3,30.06 28.3,52.92 0,23.6 -6.08,41.61 -18.25,54.04 -9.93,10.43 -26.94,19.13 -51.02,26.08 -22.84,6.71 -39.47,10.06 -49.9,10.06zm40.22 129.69l0 -0.38c6.21,11.43 10.05,21.62 11.54,30.56 11.42,3.73 17.13,9.32 17.13,16.77 0,5.96 -6.33,17.27 -18.99,33.91l-8.56 0c-19.87,0 -33.52,-28.07 -40.97,-84.22 -3.72,-28.82 -5.59,-64.34 -5.59,-106.58 17.88,0 30.17,5.72 36.87,17.15 4.72,8.19 7.08,21.24 7.08,39.13 0,3.47 0,8.57 0,15.27 -0.25,6.71 -0.37,11.68 -0.37,14.91 0,9.69 0.62,17.52 1.86,23.48zm-36.87 -232.91c-28.05,15.15 -42.08,29.93 -42.08,44.34 0,6.71 4.96,11.06 14.89,13.05 3.98,0.74 11.55,1.11 22.72,1.11 18.13,0 34.76,-2.48 49.9,-7.51 21.11,-7.27 31.66,-18.01 31.66,-32.24 0,-4.96 -3.85,-9.75 -11.55,-14.22 -6.7,-4.04 -12.78,-6.02 -18.24,-6.02 -4.22,0 -9.62,1.74 -16.2,5.21 -6.58,3.48 -11.36,5.22 -14.34,5.22 -2.73,0 -8.32,-1.86 -16.76,-5.59l0 -3.35zm124.39 196.76c1.73,-6.71 4.71,-16.4 8.93,-29.07 4.47,-9.93 15.71,-20.55 33.71,-31.86 18,-11.3 32.46,-16.96 43.38,-16.96 3.48,0 8.75,-0.68 15.83,-2.04 7.07,-1.37 12.35,-2.05 15.83,-2.05 25.32,0 42.45,3.85 51.39,11.55 9.93,8.2 14.9,24.59 14.9,49.19 -7.21,0 -17.94,-0.75 -32.22,-2.24 -14.27,-1.49 -25.01,-2.23 -32.21,-2.23 -14.4,0 -29.92,4.47 -46.55,13.41 -18.87,9.94 -28.31,21.24 -28.31,33.91l0 31.31c0,7.95 1.56,19.13 4.66,33.54 3.1,14.4 4.66,25.71 4.66,33.91 -36.01,0 -63.32,-13.91 -81.94,-41.74 -16.13,-24.1 -24.2,-55.28 -24.2,-93.54 0,-16.64 4.22,-33.91 12.66,-51.8l11.92 -0.37c9.68,-0.25 17.75,5.47 24.2,17.14 1.99,3.23 5.96,13.3 11.92,30.19l-5.59 -13.04 -2.97 32.79zm268.88 119.62l-29.05 -0.37 -3.73 -8.2c-20.85,-1.74 -38.6,-15.96 -53.25,-42.79 -12.66,-23.05 -18.99,-46.15 -18.99,-69.19 0,-24.53 6.95,-44.91 20.85,-61.06 9.93,-11.36 26.07,-22.91 48.41,-34.59 31.54,-16.34 50.03,-26.27 55.49,-29.75l23.46 -0.37c38.98,-0.5 70.08,10.06 93.29,31.61 23.22,21.61 34.82,51.99 34.82,91.18 0,41.42 -19.11,73.41 -57.35,96.02 -32.02,18.82 -70.01,28.01 -113.95,27.51zm38.35 -182.97c-20.6,0.99 -40.59,6.71 -59.95,17.08 -23.34,12.67 -35.01,28.01 -35.01,46.08 0,16.34 6.08,32.11 18.25,47.21 12.91,16.08 27.31,24.16 43.2,24.16 24.58,0 49.03,-5.72 73.36,-17.08 29.79,-14.16 44.69,-31.86 44.69,-53.17 0,-9.63 -3.35,-22.05 -10.05,-37.14 -7.2,-16.64 -14.65,-26.52 -22.35,-29.75 -5.21,13.91 -16.26,21.86 -33.14,23.85l0 7.45c-12.91,-9.44 -19.37,-17.76 -19.37,-24.96 0,-1.25 0.13,-2.49 0.37,-3.73z"/>
        <path class="fil3" d="M262.41 79.57c-25.79,0 -61.93,9.64 -108.43,28.9 -53.03,21.81 -79.54,43.25 -79.54,64.33 0,44.35 35.78,70.33 107.33,77.97 66.47,6.18 133.12,12.35 199.96,18.53 71.55,16.72 107.33,57.98 107.33,123.76 0,57.43 -21.43,102.86 -64.29,136.3 -39.59,30.9 -88.99,46.35 -148.2,46.35 -70.1,0 -122.59,-15.27 -157.46,-45.8 -36.68,-32.71 -55.02,-83.42 -55.02,-152.11 0,-13.45 13.25,-20.36 39.68,-20.72 17.07,39.25 27.97,62.88 32.69,70.88 11.99,21.08 26.24,36.16 42.95,45.25 18.89,10.54 44.77,15.81 77.82,15.81 39.14,0 73.28,-4.54 102.25,-13.63 42.77,-13.81 64.2,-35.8 64.2,-65.97 0,-30.89 -18.8,-52.52 -56.48,-64.88 -11.17,-3.63 -41.95,-8.54 -92.26,-14.72l4.9 -26.71c-3.63,10.54 -7.99,18.35 -13.07,23.44l-3.27 -1.09c-67.56,2.54 -124.23,-6.72 -169.99,-27.81 -59.94,-27.62 -89.9,-72.14 -89.9,-133.57 0,-23.99 13.8,-49.25 41.41,-75.78 24.7,-23.63 54.66,-43.8 89.9,-60.52 35.23,-16.72 64.29,-25.08 87.17,-25.08 3.27,0 10.35,2 21.25,6 19.25,-4.73 32.87,-6.73 40.86,-6 12.35,18.99 20.52,34.17 24.52,45.53 5.45,14.26 8.17,31.25 8.17,50.97 -16.34,0 -26.51,-0.73 -30.51,-2.18 -5.08,-1.82 -13.07,-7.63 -23.97,-17.45zm310.56 492.86c-43.59,0 -76.1,-30.25 -97.53,-90.68 -15.25,-42.89 -22.88,-91.5 -22.88,-145.75 0,-61.88 12.53,-92.87 37.59,-92.87 21.43,0 32.15,18.54 32.15,55.71 0,7.72 -0.46,17.9 -1.37,30.62 -0.9,12.72 -1.36,20.81 -1.36,24.08 0,90.32 24.52,135.48 73.56,135.48 31.96,0 63.2,-19.63 93.71,-58.88 29.06,-37.08 43.59,-72.33 43.59,-105.77 0,-17.45 -5.45,-33.89 -16.35,-49.34 -10.9,-15.45 -16.34,-27.72 -16.34,-36.8 0,-12 3.9,-23.36 11.71,-34.08 7.81,-10.72 17.53,-16.08 29.15,-16.08 15.62,0 31.05,17.26 46.31,51.79 13.44,30.17 20.16,54.52 20.16,73.06 0,63.61 -22.52,122.12 -67.56,175.55 -47.22,55.98 -102.07,83.96 -164.54,83.96zm269.69 -209.9l20.16 0c22.52,0 56.3,-3.36 101.34,-10.08 45.04,-6.73 78.82,-10.09 101.34,-10.09 54.12,0 81.18,23.63 81.18,70.88 0,26.17 -13.98,56.15 -41.95,89.95 -26.15,31.63 -51.94,52.89 -77.37,63.79 -9.44,4 -31.96,6 -67.56,6 -39.22,0 -78.82,-11.45 -118.77,-34.35 -45.77,-26.17 -68.65,-57.06 -68.65,-92.68l46.31 0c3.63,0 24.52,8.36 62.66,25.08 38.14,16.72 61.02,25.08 68.65,25.08l39.23 0c19.25,0 38.13,-10.36 56.66,-31.08 15.98,-17.81 27.06,-36.89 33.23,-57.25l-2.17 -2.18c-24.7,0 -61.3,4.27 -109.79,12.82 -48.49,8.54 -85.09,12.81 -109.79,12.81 -21.43,0 -40.68,-5.27 -57.75,-15.81 -19.98,-12.36 -29.97,-28.53 -29.97,-48.53 0,-39.25 24.7,-70.69 74.1,-94.32 39.96,-18.53 82.27,-27.8 126.95,-27.8 26.52,0 45.77,4.36 57.75,13.08 13.81,10.18 20.71,27.81 20.71,52.89 -45.04,0 -81.18,2.72 -108.43,8.18 -38.86,7.63 -71.55,22.17 -98.07,43.61zm374.31 22.36c17.07,-29.44 48.31,-54.71 93.71,-75.79 42.86,-19.99 82.27,-29.26 118.23,-27.8l26.7 1.09c23.25,17.08 42.32,50.97 57.21,101.68 9.44,40.43 18.89,80.69 28.33,120.76l-1.64 3.27 34.88 0c0,45.07 -19.26,67.61 -57.76,67.61 -14.53,0 -26.69,-17.09 -36.5,-51.16 -7.99,-33.71 -15.8,-67.61 -23.43,-101.68 -10.53,-40.26 -23.25,-65.61 -38.14,-76.15 -40.32,0 -76.28,13.63 -107.88,40.89 -18.89,15.99 -39.41,41.26 -61.57,75.78 -17.79,27.26 -29.96,40.89 -36.5,40.89 -27.6,0 -51.76,-44.52 -72.46,-133.57 -17.08,-74.51 -25.61,-142.84 -25.61,-204.99 0,-12.36 0.54,-21.81 1.63,-28.36l-37.59 0.55c37.41,-18.9 57.75,-28.35 61.02,-28.35 14.53,0 27.43,20.17 38.69,60.52 7.26,26.17 14.89,66.42 22.88,120.76 7.99,54.34 13.26,85.69 15.8,94.05zm389.02 -121.04c-38.87,0 -67.56,-7.27 -86.09,-21.81 -21.07,-16.35 -31.6,-43.25 -31.6,-80.69 0,-32.71 19.07,-63.06 57.21,-91.04 35.59,-25.81 70.47,-38.71 104.61,-38.71 35.6,0 65.2,7.63 88.81,22.89 27.6,18.18 41.41,43.98 41.41,77.42 0,34.53 -8.9,60.88 -26.7,79.06 -14.53,15.26 -39.41,27.98 -74.64,38.16 -33.42,9.82 -57.76,14.72 -73.01,14.72zm58.84 189.73l0 -0.54c9.08,16.72 14.71,31.62 16.89,44.7 16.71,5.45 25.06,13.63 25.06,24.54 0,8.72 -9.26,25.26 -27.78,49.61l-12.54 0c-29.05,0 -49.03,-41.07 -59.93,-123.22 -5.45,-42.16 -8.17,-94.13 -8.17,-155.92 26.15,0 44.13,8.36 53.94,25.08 6.9,11.99 10.35,31.07 10.35,57.24 0,5.09 0,12.54 0,22.35 -0.36,9.82 -0.54,17.09 -0.54,21.81 0,14.18 0.9,25.63 2.72,34.35zm-53.94 -340.75c-41.05,22.17 -61.57,43.8 -61.57,64.88 0,9.81 7.27,16.17 21.8,19.08 5.81,1.09 16.89,1.64 33.23,1.64 26.52,0 50.85,-3.64 73.01,-11 30.87,-10.63 46.31,-26.35 46.31,-47.16 0,-7.27 -5.63,-14.26 -16.89,-20.81 -9.8,-5.9 -18.7,-8.81 -26.7,-8.81 -6.17,0 -14.07,2.54 -23.7,7.63 -9.62,5.09 -16.61,7.64 -20.97,7.64 -4,0 -12.17,-2.73 -24.52,-8.18l0 -4.91z"/>
 </g>
</svg>
